# xmcd
#
# Track frame offsets:
#	150
#	21796
#	40834
#	55712
#	74095
#	90016
#	109589
#	132256
#	144034
#	159232
#
# Disc length: 2272 seconds
#
# Revision: 1
# Processed by: cddbd v1.4PL0 Copyright (c) Steve Scherf et al.
# Submitted via: EasyCDDAExtractor 6.0.0.1
#
DISCID=7308de0a
DTITLE=Lightnin Hopkins - Shinin' Moon
DYEAR=1996
DGENRE=Blues
TTITLE0=Grandma Told Grandpa
TTITLE1=Good Times
TTITLE2=Mojo Hand
TTITLE3=Shinin' Moon
TTITLE4=Go Down Old Hannah
TTITLE5=Guitar Lightnin'
TTITLE6=I'll Be Gone
TTITLE7=Talk Of The Town
TTITLE8=Ball Of Twine
TTITLE9=You Got Work To Get
EXTD=
EXTT0=
EXTT1=
EXTT2=
EXTT3=
EXTT4=
EXTT5=
EXTT6=
EXTT7=
EXTT8=
EXTT9=
PLAYORDER=
